# xmcd
#
# Track frame offsets:
# 150
# 12758
# 30501
# 51181
# 67167
# 90987
# 113032
# 125990
# 143471
# 158407
# 175858
# 191489
# 207537
# 240362
#
# Disc length: 3400 seconds
#
#
# Revision: 0
# Processed by: cddbd v1.5PL3 Copyright (c) Steve Scherf et al.
# Submitted via: FreeRIP 2.70 
#
DISCID=b30d460e
DTITLE=Colin Buchanan - God Of Wonders - Disc 1
DYEAR=2003
DGENRE=Worship
TTITLE0=Come, Children, join To Sing
TTITLE1=God Of Wonders
TTITLE2=Jesus Is Lord
TTITLE3=I Am Willing
TTITLE4=Lead Me
TTITLE5=Make My Life A Prayer
TTITLE6=The Joy Of Following Jesus
TTITLE7=Now I've Found My Home
TTITLE8=Your Rich Mercy
TTITLE9=The Other Side Of Grace
TTITLE10=King Of The Ages
TTITLE11=The Cry Of Heaven (Holy! Holy!)
TTITLE12=Have You Seen My Holy Saviour?
TTITLE13=Data
EXTD=
EXTT0=
EXTT1=
EXTT2=
EXTT3=
EXTT4=
EXTT5=
EXTT6=
EXTT7=
EXTT8=
EXTT9=
EXTT10=
EXTT11=
EXTT12=
EXTT13=
PLAYORDER=
